<svg viewBox="0 0 600 380" xmlns="http://www.w3.org/2000/svg">
  <defs>
    <radialGradient id="g1a" cx="70%" cy="25%" r="55%">
      <stop offset="0%" stop-color="#c9a96e" stop-opacity="0.16"/>
      <stop offset="100%" stop-color="#c9a96e" stop-opacity="0"/>
    </radialGradient>
    <radialGradient id="g1b" cx="15%" cy="80%" r="40%">
      <stop offset="0%" stop-color="#c9a96e" stop-opacity="0.07"/>
      <stop offset="100%" stop-color="#c9a96e" stop-opacity="0"/>
    </radialGradient>
  </defs>

  <rect width="600" height="380" fill="#080705"/>
  <rect width="600" height="380" fill="url(#g1a)"/>
  <rect width="600" height="380" fill="url(#g1b)"/>

  <!-- Ceiling -->
  <line x1="0" y1="32" x2="600" y2="32" stroke="#c9a96e" stroke-width="0.8" stroke-opacity="0.28"/>
  <!-- Floor -->
  <line x1="0" y1="305" x2="600" y2="305" stroke="#c9a96e" stroke-width="0.8" stroke-opacity="0.28"/>
  <line x1="0" y1="311" x2="600" y2="311" stroke="#c9a96e" stroke-width="0.4" stroke-opacity="0.1"/>

  <!-- Large balcony/window on right -->
  <rect x="340" y="35" width="248" height="262" fill="#c9a96e" fill-opacity="0.015" stroke="#c9a96e" stroke-width="0.8" stroke-opacity="0.25"/>
  <rect x="350" y="44" width="228" height="244" fill="#c9a96e" fill-opacity="0.01" stroke="#c9a96e" stroke-width="0.4" stroke-opacity="0.12"/>
  <!-- Window grid -->
  <line x1="464" y1="44" x2="464" y2="288" stroke="#c9a96e" stroke-width="0.7" stroke-opacity="0.16"/>
  <line x1="350" y1="165" x2="578" y2="165" stroke="#c9a96e" stroke-width="0.7" stroke-opacity="0.16"/>
  <!-- City silhouette in window -->
  <line x1="355" y1="150" x2="578" y2="150" stroke="#c9a96e" stroke-width="0.3" stroke-opacity="0.1"/>
  <rect x="358" y="122" width="12" height="28" fill="none" stroke="#c9a96e" stroke-width="0.3" stroke-opacity="0.1"/>
  <rect x="376" y="114" width="10" height="36" fill="none" stroke="#c9a96e" stroke-width="0.3" stroke-opacity="0.1"/>
  <rect x="392" y="128" width="16" height="22" fill="none" stroke="#c9a96e" stroke-width="0.3" stroke-opacity="0.1"/>
  <rect x="414" y="118" width="12" height="32" fill="none" stroke="#c9a96e" stroke-width="0.3" stroke-opacity="0.1"/>
  <rect x="432" y="126" width="14" height="24" fill="none" stroke="#c9a96e" stroke-width="0.3" stroke-opacity="0.1"/>
  <rect x="473" y="120" width="10" height="30" fill="none" stroke="#c9a96e" stroke-width="0.3" stroke-opacity="0.1"/>
  <rect x="489" y="130" width="16" height="20" fill="none" stroke="#c9a96e" stroke-width="0.3" stroke-opacity="0.1"/>
  <rect x="512" y="115" width="12" height="35" fill="none" stroke="#c9a96e" stroke-width="0.3" stroke-opacity="0.1"/>
  <rect x="530" y="124" width="18" height="26" fill="none" stroke="#c9a96e" stroke-width="0.3" stroke-opacity="0.1"/>
  <rect x="555" y="110" width="10" height="40" fill="none" stroke="#c9a96e" stroke-width="0.3" stroke-opacity="0.1"/>

  <!-- Left wall panels -->
  <rect x="10" y="36" width="115" height="265" fill="none" stroke="#c9a96e" stroke-width="0.5" stroke-opacity="0.13"/>
  <rect x="18" y="44" width="99" height="249" fill="none" stroke="#c9a96e" stroke-width="0.3" stroke-opacity="0.07"/>
  <!-- Left wall art -->
  <rect x="25" y="58" width="78" height="95" fill="none" stroke="#c9a96e" stroke-width="0.7" stroke-opacity="0.24"/>
  <rect x="30" y="63" width="68" height="85" fill="#c9a96e" fill-opacity="0.02"/>
  <line x1="34" y1="105" x2="92" y2="68" stroke="#c9a96e" stroke-width="0.6" stroke-opacity="0.16"/>
  <circle cx="63" cy="100" r="12" fill="none" stroke="#c9a96e" stroke-width="0.4" stroke-opacity="0.12"/>

  <!-- Sectional sofa (L-shape suggestion) -->
  <!-- Main section -->
  <rect x="12" y="228" width="292" height="72" rx="4" fill="#c9a96e" fill-opacity="0.042" stroke="#c9a96e" stroke-width="1.1" stroke-opacity="0.4"/>
  <!-- Back -->
  <rect x="12" y="195" width="292" height="40" rx="4" fill="#c9a96e" fill-opacity="0.035" stroke="#c9a96e" stroke-width="0.9" stroke-opacity="0.32"/>
  <!-- Left arm -->
  <rect x="12" y="195" width="28" height="105" rx="3" fill="#c9a96e" fill-opacity="0.045" stroke="#c9a96e" stroke-width="0.9" stroke-opacity="0.34"/>
  <!-- Right arm -->
  <rect x="276" y="195" width="28" height="105" rx="3" fill="#c9a96e" fill-opacity="0.045" stroke="#c9a96e" stroke-width="0.9" stroke-opacity="0.34"/>
  <!-- Cushion dividers -->
  <line x1="115" y1="228" x2="115" y2="300" stroke="#c9a96e" stroke-width="0.5" stroke-opacity="0.2"/>
  <line x1="200" y1="228" x2="200" y2="300" stroke="#c9a96e" stroke-width="0.5" stroke-opacity="0.2"/>
  <!-- Throw pillows -->
  <rect x="122" y="234" width="48" height="48" rx="2" fill="#c9a96e" fill-opacity="0.07" stroke="#c9a96e" stroke-width="0.7" stroke-opacity="0.3"/>
  <rect x="206" y="236" width="44" height="44" rx="2" fill="#c9a96e" fill-opacity="0.06" stroke="#c9a96e" stroke-width="0.7" stroke-opacity="0.26"/>

  <!-- TV console / media unit -->
  <rect x="128" y="160" width="190" height="28" rx="2" fill="#c9a96e" fill-opacity="0.04" stroke="#c9a96e" stroke-width="0.8" stroke-opacity="0.32"/>
  <rect x="134" y="165" width="178" height="18" rx="1" fill="none" stroke="#c9a96e" stroke-width="0.3" stroke-opacity="0.14"/>
  <!-- TV (wall-mounted, above console) -->
  <rect x="148" y="100" width="155" height="58" rx="2" fill="#c9a96e" fill-opacity="0.025" stroke="#c9a96e" stroke-width="0.7" stroke-opacity="0.28"/>
  <rect x="155" y="106" width="141" height="46" rx="1" fill="#c9a96e" fill-opacity="0.015"/>
  <!-- TV stand -->
  <line x1="225" y1="158" x2="225" y2="162" stroke="#c9a96e" stroke-width="1.5" stroke-opacity="0.2"/>

  <!-- Floor lamp (far left) -->
  <line x1="138" y1="78" x2="142" y2="292" stroke="#c9a96e" stroke-width="1" stroke-opacity="0.26"/>
  <path d="M 118 78 Q 118 96 140 100 Q 162 96 162 78 Z" fill="#c9a96e" fill-opacity="0.06" stroke="#c9a96e" stroke-width="0.7" stroke-opacity="0.28"/>
  <ellipse cx="140" cy="78" rx="22" ry="6" fill="#c9a96e" fill-opacity="0.1" stroke="#c9a96e" stroke-width="0.6" stroke-opacity="0.26"/>
  <ellipse cx="140" cy="102" rx="60" ry="28" fill="#c9a96e" fill-opacity="0.03"/>
  <ellipse cx="141" cy="292" rx="12" ry="4" fill="#c9a96e" fill-opacity="0.1" stroke="#c9a96e" stroke-width="0.5" stroke-opacity="0.22"/>

  <!-- Coffee table -->
  <rect x="60" y="300" width="186" height="35" rx="2" fill="#c9a96e" fill-opacity="0.04" stroke="#c9a96e" stroke-width="0.8" stroke-opacity="0.38"/>
  <rect x="66" y="304" width="174" height="27" rx="1" fill="none" stroke="#c9a96e" stroke-width="0.3" stroke-opacity="0.14"/>
  <line x1="78" y1="335" x2="74" y2="350" stroke="#c9a96e" stroke-width="0.7" stroke-opacity="0.2"/>
  <line x1="230" y1="335" x2="234" y2="350" stroke="#c9a96e" stroke-width="0.7" stroke-opacity="0.2"/>

  <!-- Rug -->
  <ellipse cx="155" cy="308" rx="145" ry="10" fill="none" stroke="#c9a96e" stroke-width="0.6" stroke-opacity="0.12"/>

  <!-- Floor planks -->
  <line x1="0" y1="318" x2="600" y2="318" stroke="#c9a96e" stroke-width="0.4" stroke-opacity="0.09"/>
  <line x1="0" y1="330" x2="600" y2="330" stroke="#c9a96e" stroke-width="0.4" stroke-opacity="0.08"/>
  <line x1="0" y1="342" x2="600" y2="342" stroke="#c9a96e" stroke-width="0.4" stroke-opacity="0.07"/>
  <line x1="0" y1="354" x2="600" y2="354" stroke="#c9a96e" stroke-width="0.4" stroke-opacity="0.07"/>
  <line x1="0" y1="366" x2="600" y2="366" stroke="#c9a96e" stroke-width="0.4" stroke-opacity="0.06"/>
  <!-- Plank joints -->
  <line x1="100" y1="308" x2="100" y2="322" stroke="#c9a96e" stroke-width="0.3" stroke-opacity="0.06"/>
  <line x1="260" y1="308" x2="260" y2="322" stroke="#c9a96e" stroke-width="0.3" stroke-opacity="0.06"/>
  <line x1="440" y1="308" x2="440" y2="322" stroke="#c9a96e" stroke-width="0.3" stroke-opacity="0.06"/>
</svg>
