<svg viewBox="0 0 600 720" xmlns="http://www.w3.org/2000/svg">
  <defs>
    <radialGradient id="gA" cx="65%" cy="18%" r="55%">
      <stop offset="0%" stop-color="#c9a96e" stop-opacity="0.18"/>
      <stop offset="100%" stop-color="#c9a96e" stop-opacity="0"/>
    </radialGradient>
    <radialGradient id="gB" cx="20%" cy="82%" r="40%">
      <stop offset="0%" stop-color="#c9a96e" stop-opacity="0.08"/>
      <stop offset="100%" stop-color="#c9a96e" stop-opacity="0"/>
    </radialGradient>
    <radialGradient id="lampGlow" cx="50%" cy="50%" r="50%">
      <stop offset="0%" stop-color="#c9a96e" stop-opacity="0.12"/>
      <stop offset="100%" stop-color="#c9a96e" stop-opacity="0"/>
    </radialGradient>
  </defs>

  <!-- Background -->
  <rect width="600" height="720" fill="#080705"/>
  <rect width="600" height="720" fill="url(#gA)"/>
  <rect width="600" height="720" fill="url(#gB)"/>

  <!-- Ceiling cornice -->
  <line x1="0" y1="55" x2="600" y2="55" stroke="#c9a96e" stroke-width="1.2" stroke-opacity="0.3"/>
  <line x1="0" y1="62" x2="600" y2="62" stroke="#c9a96e" stroke-width="0.5" stroke-opacity="0.12"/>

  <!-- Floor skirting -->
  <line x1="0" y1="570" x2="600" y2="570" stroke="#c9a96e" stroke-width="1.2" stroke-opacity="0.3"/>
  <line x1="0" y1="578" x2="600" y2="578" stroke="#c9a96e" stroke-width="0.5" stroke-opacity="0.12"/>

  <!-- Wall paneling left side (two panel columns) -->
  <rect x="18" y="68" width="138" height="225" fill="none" stroke="#c9a96e" stroke-width="0.6" stroke-opacity="0.15"/>
  <rect x="28" y="78" width="118" height="205" fill="none" stroke="#c9a96e" stroke-width="0.4" stroke-opacity="0.08"/>
  <rect x="18" y="305" width="138" height="255" fill="none" stroke="#c9a96e" stroke-width="0.6" stroke-opacity="0.12"/>
  <rect x="28" y="315" width="118" height="235" fill="none" stroke="#c9a96e" stroke-width="0.4" stroke-opacity="0.07"/>

  <rect x="168" y="68" width="138" height="225" fill="none" stroke="#c9a96e" stroke-width="0.6" stroke-opacity="0.15"/>
  <rect x="178" y="78" width="118" height="205" fill="none" stroke="#c9a96e" stroke-width="0.4" stroke-opacity="0.08"/>
  <rect x="168" y="305" width="138" height="255" fill="none" stroke="#c9a96e" stroke-width="0.6" stroke-opacity="0.12"/>
  <rect x="178" y="315" width="118" height="235" fill="none" stroke="#c9a96e" stroke-width="0.4" stroke-opacity="0.07"/>

  <!-- Horizontal wainscoting rail -->
  <line x1="0" y1="303" x2="345" y2="303" stroke="#c9a96e" stroke-width="0.6" stroke-opacity="0.12"/>
  <line x1="0" y1="308" x2="345" y2="308" stroke="#c9a96e" stroke-width="0.4" stroke-opacity="0.07"/>

  <!-- Right side: large window -->
  <rect x="342" y="68" width="240" height="494" fill="#c9a96e" fill-opacity="0.018" stroke="#c9a96e" stroke-width="0.9" stroke-opacity="0.28"/>
  <rect x="352" y="78" width="220" height="474" fill="#c9a96e" fill-opacity="0.01" stroke="#c9a96e" stroke-width="0.5" stroke-opacity="0.14"/>
  <!-- Window centre mullion -->
  <line x1="462" y1="78" x2="462" y2="552" stroke="#c9a96e" stroke-width="0.8" stroke-opacity="0.18"/>
  <!-- Window horizontal rail -->
  <line x1="352" y1="310" x2="572" y2="310" stroke="#c9a96e" stroke-width="0.8" stroke-opacity="0.18"/>
  <!-- Subtle exterior horizon through glass -->
  <line x1="352" y1="270" x2="572" y2="270" stroke="#c9a96e" stroke-width="0.4" stroke-opacity="0.1"/>
  <!-- City silhouette (abstract) -->
  <rect x="360" y="240" width="18" height="30" fill="none" stroke="#c9a96e" stroke-width="0.4" stroke-opacity="0.1"/>
  <rect x="385" y="230" width="14" height="40" fill="none" stroke="#c9a96e" stroke-width="0.4" stroke-opacity="0.1"/>
  <rect x="405" y="248" width="22" height="22" fill="none" stroke="#c9a96e" stroke-width="0.4" stroke-opacity="0.1"/>
  <rect x="434" y="236" width="16" height="34" fill="none" stroke="#c9a96e" stroke-width="0.4" stroke-opacity="0.1"/>
  <rect x="455" y="244" width="12" height="26" fill="none" stroke="#c9a96e" stroke-width="0.4" stroke-opacity="0.1"/>
  <rect x="475" y="250" width="20" height="20" fill="none" stroke="#c9a96e" stroke-width="0.4" stroke-opacity="0.1"/>
  <rect x="503" y="238" width="14" height="32" fill="none" stroke="#c9a96e" stroke-width="0.4" stroke-opacity="0.1"/>
  <rect x="523" y="245" width="18" height="25" fill="none" stroke="#c9a96e" stroke-width="0.4" stroke-opacity="0.1"/>
  <rect x="548" y="232" width="10" height="38" fill="none" stroke="#c9a96e" stroke-width="0.4" stroke-opacity="0.1"/>

  <!-- Curtain left of window -->
  <path d="M 345 68 C 332 180 338 310 333 440 C 328 530 338 560 347 570" stroke="#c9a96e" stroke-width="1.8" stroke-opacity="0.22" fill="none"/>
  <path d="M 348 68 C 336 180 342 310 337 440 C 332 530 342 562 350 570" stroke="#c9a96e" stroke-width="0.8" stroke-opacity="0.1" fill="none"/>

  <!-- Pendant light (ceiling, center-left) -->
  <line x1="210" y1="55" x2="210" y2="108" stroke="#c9a96e" stroke-width="1" stroke-opacity="0.38"/>
  <path d="M 183 108 Q 183 135 210 140 Q 237 135 237 108 Z" fill="#c9a96e" fill-opacity="0.06" stroke="#c9a96e" stroke-width="0.8" stroke-opacity="0.38"/>
  <ellipse cx="210" cy="108" rx="27" ry="7" fill="#c9a96e" fill-opacity="0.12" stroke="#c9a96e" stroke-width="0.7" stroke-opacity="0.35"/>
  <ellipse cx="210" cy="148" rx="95" ry="42" fill="url(#lampGlow)"/>
  <ellipse cx="210" cy="160" rx="150" ry="55" fill="#c9a96e" fill-opacity="0.02"/>

  <!-- Wall art (left) -->
  <rect x="35" y="95" width="96" height="125" fill="none" stroke="#c9a96e" stroke-width="0.8" stroke-opacity="0.28"/>
  <rect x="43" y="103" width="80" height="109" fill="#c9a96e" fill-opacity="0.022"/>
  <line x1="50" y1="160" x2="116" y2="112" stroke="#c9a96e" stroke-width="0.8" stroke-opacity="0.18"/>
  <circle cx="83" cy="151" r="16" fill="none" stroke="#c9a96e" stroke-width="0.5" stroke-opacity="0.14"/>
  <line x1="50" y1="130" x2="116" y2="172" stroke="#c9a96e" stroke-width="0.5" stroke-opacity="0.1"/>

  <!-- Sofa -->
  <!-- Back cushions -->
  <rect x="25" y="378" width="290" height="62" rx="5" fill="#c9a96e" fill-opacity="0.04" stroke="#c9a96e" stroke-width="1" stroke-opacity="0.35"/>
  <!-- Seat -->
  <rect x="25" y="432" width="290" height="105" rx="5" fill="#c9a96e" fill-opacity="0.045" stroke="#c9a96e" stroke-width="1.2" stroke-opacity="0.42"/>
  <!-- Left armrest -->
  <rect x="25" y="378" width="30" height="159" rx="4" fill="#c9a96e" fill-opacity="0.05" stroke="#c9a96e" stroke-width="0.9" stroke-opacity="0.38"/>
  <!-- Right armrest -->
  <rect x="285" y="378" width="30" height="159" rx="4" fill="#c9a96e" fill-opacity="0.05" stroke="#c9a96e" stroke-width="0.9" stroke-opacity="0.38"/>
  <!-- Seat cushion dividers -->
  <line x1="120" y1="432" x2="120" y2="537" stroke="#c9a96e" stroke-width="0.6" stroke-opacity="0.22"/>
  <line x1="200" y1="432" x2="200" y2="537" stroke="#c9a96e" stroke-width="0.6" stroke-opacity="0.22"/>
  <!-- Throw cushions -->
  <rect x="130" y="437" width="54" height="54" rx="3" fill="#c9a96e" fill-opacity="0.07" stroke="#c9a96e" stroke-width="0.8" stroke-opacity="0.32"/>
  <rect x="208" y="440" width="50" height="50" rx="3" fill="#c9a96e" fill-opacity="0.06" stroke="#c9a96e" stroke-width="0.8" stroke-opacity="0.28"/>
  <!-- Sofa legs -->
  <line x1="48" y1="537" x2="44" y2="554" stroke="#c9a96e" stroke-width="1" stroke-opacity="0.2"/>
  <line x1="298" y1="537" x2="302" y2="554" stroke="#c9a96e" stroke-width="1" stroke-opacity="0.2"/>

  <!-- Coffee table -->
  <rect x="78" y="550" width="180" height="48" rx="2" fill="#c9a96e" fill-opacity="0.04" stroke="#c9a96e" stroke-width="0.9" stroke-opacity="0.4"/>
  <rect x="84" y="554" width="168" height="40" rx="1" fill="none" stroke="#c9a96e" stroke-width="0.4" stroke-opacity="0.18"/>
  <!-- Table legs -->
  <line x1="94" y1="598" x2="90" y2="615" stroke="#c9a96e" stroke-width="0.9" stroke-opacity="0.28"/>
  <line x1="244" y1="598" x2="248" y2="615" stroke="#c9a96e" stroke-width="0.9" stroke-opacity="0.28"/>
  <!-- Books on table -->
  <rect x="96" y="555" width="42" height="28" rx="1" fill="#c9a96e" fill-opacity="0.06" stroke="#c9a96e" stroke-width="0.5" stroke-opacity="0.28"/>
  <rect x="100" y="551" width="38" height="26" rx="1" fill="#c9a96e" fill-opacity="0.05" stroke="#c9a96e" stroke-width="0.4" stroke-opacity="0.22"/>
  <!-- Vase on table -->
  <path d="M192 550 Q184 550 181 558 Q178 566 180 578 Q182 589 192 592 Q202 589 204 578 Q206 566 203 558 Q200 550 192 550Z" fill="#c9a96e" fill-opacity="0.05" stroke="#c9a96e" stroke-width="0.6" stroke-opacity="0.3"/>
  <!-- Candle -->
  <rect x="218" y="548" width="10" height="20" rx="1" fill="#c9a96e" fill-opacity="0.06" stroke="#c9a96e" stroke-width="0.5" stroke-opacity="0.28"/>
  <ellipse cx="223" cy="545" rx="4" ry="5" fill="#c9a96e" fill-opacity="0.2"/>

  <!-- Floor lamp (right of sofa) -->
  <line x1="322" y1="165" x2="326" y2="575" stroke="#c9a96e" stroke-width="1.2" stroke-opacity="0.28"/>
  <path d="M 298 165 Q 298 188 324 193 Q 350 188 350 165 Z" fill="#c9a96e" fill-opacity="0.06" stroke="#c9a96e" stroke-width="0.8" stroke-opacity="0.3"/>
  <ellipse cx="324" cy="165" rx="26" ry="7" fill="#c9a96e" fill-opacity="0.1" stroke="#c9a96e" stroke-width="0.7" stroke-opacity="0.28"/>
  <ellipse cx="324" cy="195" rx="72" ry="35" fill="#c9a96e" fill-opacity="0.03"/>
  <ellipse cx="324" cy="575" rx="15" ry="5" fill="#c9a96e" fill-opacity="0.1" stroke="#c9a96e" stroke-width="0.6" stroke-opacity="0.28"/>

  <!-- Side table right of sofa -->
  <rect x="320" y="475" width="50" height="52" rx="2" fill="#c9a96e" fill-opacity="0.04" stroke="#c9a96e" stroke-width="0.7" stroke-opacity="0.3"/>
  <!-- Accent lamp on side table -->
  <line x1="345" y1="440" x2="345" y2="475" stroke="#c9a96e" stroke-width="0.8" stroke-opacity="0.22"/>
  <ellipse cx="345" cy="435" rx="15" ry="9" fill="#c9a96e" fill-opacity="0.08" stroke="#c9a96e" stroke-width="0.6" stroke-opacity="0.24"/>
  <ellipse cx="345" cy="447" rx="32" ry="16" fill="#c9a96e" fill-opacity="0.04"/>

  <!-- Rug outline -->
  <ellipse cx="170" cy="576" rx="165" ry="15" fill="none" stroke="#c9a96e" stroke-width="0.7" stroke-opacity="0.14"/>
  <ellipse cx="170" cy="576" rx="152" ry="10" fill="none" stroke="#c9a96e" stroke-width="0.4" stroke-opacity="0.07"/>

  <!-- Floor planks -->
  <line x1="0" y1="590" x2="600" y2="590" stroke="#c9a96e" stroke-width="0.4" stroke-opacity="0.1"/>
  <line x1="0" y1="604" x2="600" y2="604" stroke="#c9a96e" stroke-width="0.4" stroke-opacity="0.09"/>
  <line x1="0" y1="618" x2="600" y2="618" stroke="#c9a96e" stroke-width="0.4" stroke-opacity="0.08"/>
  <line x1="0" y1="632" x2="600" y2="632" stroke="#c9a96e" stroke-width="0.4" stroke-opacity="0.08"/>
  <line x1="0" y1="646" x2="600" y2="646" stroke="#c9a96e" stroke-width="0.4" stroke-opacity="0.07"/>
  <line x1="0" y1="660" x2="600" y2="660" stroke="#c9a96e" stroke-width="0.4" stroke-opacity="0.07"/>
  <line x1="0" y1="674" x2="600" y2="674" stroke="#c9a96e" stroke-width="0.4" stroke-opacity="0.06"/>
  <line x1="0" y1="688" x2="600" y2="688" stroke="#c9a96e" stroke-width="0.4" stroke-opacity="0.06"/>
  <line x1="0" y1="702" x2="600" y2="702" stroke="#c9a96e" stroke-width="0.4" stroke-opacity="0.05"/>
  <line x1="0" y1="716" x2="600" y2="716" stroke="#c9a96e" stroke-width="0.4" stroke-opacity="0.05"/>
  <!-- Plank joints staggered -->
  <line x1="130" y1="580" x2="130" y2="598" stroke="#c9a96e" stroke-width="0.3" stroke-opacity="0.07"/>
  <line x1="320" y1="580" x2="320" y2="598" stroke="#c9a96e" stroke-width="0.3" stroke-opacity="0.07"/>
  <line x1="510" y1="580" x2="510" y2="598" stroke="#c9a96e" stroke-width="0.3" stroke-opacity="0.07"/>
  <line x1="65" y1="598" x2="65" y2="616" stroke="#c9a96e" stroke-width="0.3" stroke-opacity="0.07"/>
  <line x1="225" y1="598" x2="225" y2="616" stroke="#c9a96e" stroke-width="0.3" stroke-opacity="0.07"/>
  <line x1="415" y1="598" x2="415" y2="616" stroke="#c9a96e" stroke-width="0.3" stroke-opacity="0.07"/>
  <line x1="565" y1="598" x2="565" y2="616" stroke="#c9a96e" stroke-width="0.3" stroke-opacity="0.07"/>
</svg>
